# xmcd
#
# Track frame offsets:
#	150
#	13075
#	30290
#	45030
#	62845
#	79248
#	99160
#	118506
#	133598
#	147655
#	159953
#	175573
#
# Disc length: 2623 seconds
#
# Revision: 1239102510
# Processed by: cddbd v1.5.2PL0 Copyright (c) Steve Scherf et al.
# Submitted via: EZCDAudioConverter 8.0.7.1
#
DISCID=890a3d0c
DTITLE=Dwight Yoakam - Swimmin' Pools, Movie Stars…
DYEAR=2016
DGENRE=Country
TTITLE0=What I Don't Know
TTITLE1=Free To Go
TTITLE2=Sad, Sad Music
TTITLE3=These Arms
TTITLE4=I Wouldn't Put It Past Me
TTITLE5=Listen
TTITLE6=Two Doors Down
TTITLE7=Guitars, Cadillacs
TTITLE8=Home For Sale
TTITLE9=Please, Please Baby
TTITLE10=Gone (That'll Be Me)
TTITLE11=Purple Rain
EXTD=
EXTT0=
EXTT1=
EXTT2=
EXTT3=
EXTT4=
EXTT5=
EXTT6=
EXTT7=
EXTT8=
EXTT9=
EXTT10=
EXTT11=
PLAYORDER=
